<?xml version="1.0" encoding="utf-8"?>
<!-- Generator: Adobe Illustrator 27.0.0, SVG Export Plug-In . SVG Version: 6.00 Build 0)  -->
<svg version="1.1" id="Layer_1" xmlns="http://www.w3.org/2000/svg" xmlns:xlink="http://www.w3.org/1999/xlink" x="0px" y="0px"
	 viewBox="0 0 234.99 56.69" style="enable-background:new 0 0 234.99 56.69;" xml:space="preserve">
<style type="text/css">
	.st0{fill-rule:evenodd;clip-rule:evenodd;fill:#5FACB3;}
	.st1{fill:#70C9D2;}
	.st2{fill:#FFFFFF;}
</style>
<path class="st0" d="M24.36,0.11h203.24c4.08,0,7.39,3.31,7.39,7.39v41.81c0,4.08-3.31,7.39-7.39,7.39H24.36
	c-4.08,0-7.39-3.31-7.39-7.39V7.5C16.98,3.42,20.28,0.11,24.36,0.11z"/>
<g>
	<path class="st1" d="M44.31,19.46C40.73,11.06,32.4,5.27,22.98,5.27C10.17,5.27,0,15.84,0,28.44c0,12.7,10.28,22.98,22.98,22.98
		c12.61,0,23.16-10.19,23.16-22.98C46.15,25.33,45.53,22.31,44.31,19.46z"/>
	<path class="st2" d="M36.85,35.25l-3.61-3.61c-1-1-2.62-1-3.61,0l-1.64,1.64c-0.75,0.75-1.98,0.75-2.74,0l-7.11-7.12
		c-0.76-0.76-0.76-1.98,0-2.74c0.26-0.26,1.02-1.02,1.64-1.64c0.99-0.99,1-2.61,0-3.61l-3.61-3.6c-1-1-2.62-1-3.61,0
		c-0.74,0.74-0.98,0.97-1.32,1.3c-3.59,3.59-3.59,9.43,0,13.02l11.27,11.28c3.6,3.6,9.42,3.6,13.02,0l1.31-1.31
		C37.85,37.86,37.85,36.24,36.85,35.25z M32.04,32.84l3.61,3.61c0.33,0.33,0.33,0.87,0,1.2l-0.6,0.6l-4.81-4.81l0.6-0.6
		C31.16,32.51,31.7,32.51,32.04,32.84z M14.97,15.77l3.61,3.6c0.33,0.33,0.33,0.87,0,1.2l-0.6,0.6l-4.81-4.81l0.6-0.59
		C14.09,15.44,14.63,15.44,14.97,15.77z M23.72,38.97L12.45,27.69c-2.78-2.78-2.93-7.14-0.47-10.1l4.8,4.8
		c-1.26,1.43-1.21,3.61,0.16,4.97l7.11,7.12c0,0,0,0,0,0c1.36,1.36,3.54,1.42,4.97,0.16l4.8,4.8
		C30.87,41.89,26.52,41.76,23.72,38.97z"/>
</g>
<g>
	<path class="st2" d="M170.08,19.21c-3.05,0-4.65-1.29-4.79-3.86h-0.53c-0.66,0-1.1,0.21-1.32,0.63c-0.14,0.25-0.21,0.59-0.21,1.02
		c0,0.3,0.03,0.64,0.1,1.01l0.95,5.97h-1.65l-0.93-5.82c-0.06-0.38-0.09-0.72-0.09-1.05c0-0.8,0.18-1.45,0.53-1.95
		c0.52-0.76,1.42-1.14,2.69-1.14h0.53c0.17-1.06,0.63-1.91,1.38-2.56c0.81-0.7,1.85-1.05,3.11-1.05c2.61,0,3.92,1.37,3.92,4.11v3.36
		h1.83v1.34H170.08z M172.13,14.79c0-2.04-0.81-3.06-2.43-3.06c-0.84,0-1.51,0.28-2,0.84c-0.49,0.55-0.73,1.28-0.73,2.2
		c0,2.06,1.12,3.09,3.35,3.09h1.82V14.79z"/>
	<path class="st2" d="M175.13,17.87h4.07v1.34h-4.07V17.87z"/>
	<path class="st2" d="M175.28,17.87h4.07v1.34h-4.07V17.87z"/>
	<path class="st2" d="M179.09,17.87h4.07v1.34h-4.07V17.87z"/>
	<path class="st2" d="M182.9,17.87h4.07v1.34h-4.07V17.87z"/>
	<path class="st2" d="M186.71,17.87h4.07v1.34h-4.07V17.87z"/>
	<path class="st2" d="M190.52,17.87h4.07v1.34h-4.07V17.87z"/>
	<path class="st2" d="M194.33,17.87h4.07v1.34h-4.07V17.87z"/>
	<path class="st2" d="M198.14,19.21v-1.34h1.45c0.42,0,0.78,0.03,1.06,0.1c-0.91-0.57-1.36-1.6-1.36-3.09
		c0-1.26,0.38-2.31,1.15-3.13c0.83-0.89,1.97-1.34,3.43-1.34c2.61,0,3.92,1.37,3.92,4.11v4.7H198.14z M206.14,14.79
		c0-2.04-0.81-3.06-2.42-3.06c-0.85,0-1.51,0.28-2,0.84c-0.49,0.54-0.73,1.28-0.73,2.2c0,2.06,1.11,3.09,3.34,3.09h1.82V14.79z
		 M201.64,8.64c-0.19-0.19-0.29-0.43-0.29-0.72c0-0.26,0.1-0.49,0.29-0.68c0.18-0.19,0.41-0.29,0.69-0.29c0.27,0,0.5,0.09,0.69,0.28
		c0.19,0.19,0.29,0.42,0.29,0.69c0,0.27-0.1,0.51-0.29,0.71c-0.19,0.19-0.42,0.29-0.69,0.29C202.06,8.91,201.83,8.82,201.64,8.64z
		 M204.34,8.64c-0.19-0.19-0.29-0.43-0.29-0.72c0-0.26,0.1-0.49,0.29-0.68c0.19-0.19,0.42-0.29,0.7-0.29c0.27,0,0.49,0.09,0.68,0.28
		c0.18,0.19,0.28,0.42,0.28,0.69c0,0.28-0.09,0.52-0.28,0.71c-0.18,0.19-0.41,0.29-0.68,0.29C204.77,8.91,204.54,8.82,204.34,8.64z"
		/>
	<path class="st2" d="M207.84,23.66l0.18-1.4c0.57,0.21,1.18,0.31,1.85,0.31c0.81,0,1.41-0.22,1.79-0.67
		c0.43-0.5,0.65-1.31,0.65-2.46V10.6H214v7.27h2.01v1.34H214v0.09c0,3.08-1.42,4.62-4.25,4.62
		C209.12,23.91,208.49,23.83,207.84,23.66z"/>
	<path class="st2" d="M215.75,17.87h2.57V6.29H220v12.91h-4.25V17.87z"/>
	<path class="st2" d="M223.47,6.29h1.68v12.91h-1.68V6.29z"/>
	<path class="st2" d="M175.6,46.66v-4.58c0-1.04-0.2-1.78-0.61-2.23c-0.4-0.45-1.06-0.67-1.99-0.67c-0.5,0-1.01,0.05-1.54,0.15v7.33
		h-3.41c-2.27,0-3.92-0.45-4.96-1.36c-0.98-0.86-1.48-2.18-1.48-3.97c0-1.16,0.2-2.17,0.61-3.04l1.79-0.31
		c-0.47,0.95-0.7,2-0.7,3.16c0,1.45,0.34,2.5,1.03,3.14c0.76,0.7,2.06,1.05,3.9,1.05h1.56V38.2c1.08-0.23,2.2-0.35,3.35-0.35
		c1.47,0,2.54,0.35,3.19,1.06c0.6,0.64,0.89,1.63,0.89,2.94v3.46h3.9v-7.27h1.68v8.61H175.6z M181.29,35.8
		c-0.19-0.19-0.29-0.42-0.29-0.7c0-0.28,0.1-0.52,0.29-0.72c0.19-0.2,0.42-0.3,0.7-0.3c0.28,0,0.52,0.1,0.72,0.3
		c0.2,0.19,0.3,0.43,0.3,0.72c0,0.27-0.1,0.51-0.3,0.7c-0.2,0.19-0.44,0.29-0.72,0.29S181.48,35.99,181.29,35.8z"/>
	<path class="st2" d="M186.08,33.74h1.68v11.57h2.02v1.34h-3.7V33.74z"/>
	<path class="st2" d="M189.51,45.32h4.07v1.34h-4.07V45.32z"/>
	<path class="st2" d="M189.66,45.32h4.07v1.34h-4.07V45.32z"/>
	<path class="st2" d="M193.47,45.32h7.57c0.08-0.75,0.13-1.37,0.13-1.88c0-1.43-0.29-2.47-0.88-3.1c-0.63-0.68-1.67-1.02-3.13-1.02
		c-0.73,0-1.41,0.04-2.04,0.13v-1.31c0.64-0.1,1.37-0.15,2.18-0.15c1.96,0,3.39,0.45,4.28,1.36c0.84,0.86,1.26,2.18,1.26,3.97
		c0,0.57-0.04,1.24-0.12,2.01h1.69v1.34h-10.94V45.32z M197.09,50.11c-0.19-0.19-0.29-0.43-0.29-0.71c0-0.27,0.1-0.51,0.29-0.7
		c0.19-0.19,0.42-0.29,0.7-0.29c0.28,0,0.52,0.09,0.72,0.28c0.2,0.19,0.29,0.43,0.29,0.71c0,0.27-0.1,0.51-0.29,0.71
		c-0.2,0.19-0.44,0.29-0.72,0.29C197.51,50.4,197.28,50.3,197.09,50.11z"/>
	<path class="st2" d="M211.07,46.66c-2.13,0-3.54-0.58-4.23-1.73c-0.32,1.15-1.26,1.73-2.8,1.73h-0.28v-1.34
		c0.74,0,1.28-0.19,1.63-0.58c0.42-0.46,0.63-1.27,0.63-2.41c0-1.26,0.38-2.31,1.15-3.13c0.83-0.89,1.98-1.34,3.43-1.34
		c2.61,0,3.92,1.37,3.92,4.11v3.36h3.8V33.74H220v12.92H211.07z M212.87,42.24c0-2.04-0.8-3.06-2.41-3.06c-0.85,0-1.51,0.28-2,0.84
		c-0.49,0.54-0.73,1.28-0.73,2.2c0,2.06,1.11,3.1,3.34,3.1h1.82V42.24z"/>
	<path class="st2" d="M223.47,33.74h1.68v12.92h-1.68V33.74z"/>
</g>
<g>
	<path class="st2" d="M58.74,20.81c-0.91,0.68-2.07,1.02-3.48,1.02c-1.44,0-2.55-0.34-3.36-1.02c-0.77-0.66-1.16-1.54-1.16-2.63
		c0-1.41,0.98-2.73,2.95-3.97c-1.8-1.04-2.7-2.24-2.7-3.61c0-1.16,0.43-2.09,1.29-2.8c0.86-0.7,1.99-1.06,3.4-1.06
		c1.28,0,2.31,0.33,3.09,0.99c0.75,0.64,1.12,1.46,1.12,2.47c0,1.27-0.94,2.52-2.81,3.76c2.08,1.13,3.11,2.43,3.11,3.92
		C60.19,19.11,59.71,20.08,58.74,20.81z M55.26,15.02c-1.64,1-2.46,1.99-2.46,2.97c0,0.68,0.24,1.21,0.71,1.6
		c0.49,0.4,1.14,0.6,1.97,0.6c0.77,0,1.39-0.18,1.88-0.54c0.51-0.39,0.77-0.91,0.77-1.58C58.13,17.04,57.17,16.02,55.26,15.02z
		 M57.26,8.93c-0.43-0.41-1.02-0.61-1.78-0.61c-0.77,0-1.39,0.19-1.85,0.58c-0.44,0.37-0.66,0.87-0.66,1.48
		c0,0.93,0.84,1.85,2.53,2.77c1.57-0.98,2.35-1.9,2.35-2.77C57.86,9.79,57.66,9.3,57.26,8.93z"/>
	<path class="st2" d="M71.45,19.95c-0.97,1.24-2.26,1.86-3.85,1.86c-3.41,0-5.12-2.45-5.12-7.35c0-2.49,0.53-4.41,1.59-5.75
		c0.98-1.24,2.26-1.86,3.85-1.86c3.41,0,5.12,2.44,5.12,7.33C73.05,16.67,72.51,18.59,71.45,19.95z M67.8,8.48
		c-2.16,0-3.24,1.94-3.24,5.82c0,3.92,1.07,5.88,3.2,5.88c2.15,0,3.22-1.94,3.22-5.82C70.98,10.44,69.92,8.48,67.8,8.48z"/>
	<path class="st2" d="M84.1,19.95c-0.97,1.24-2.26,1.86-3.85,1.86c-3.41,0-5.12-2.45-5.12-7.35c0-2.49,0.53-4.41,1.59-5.75
		c0.98-1.24,2.26-1.86,3.85-1.86c3.41,0,5.12,2.44,5.12,7.33C85.69,16.67,85.16,18.59,84.1,19.95z M80.45,8.48
		c-2.16,0-3.24,1.94-3.24,5.82c0,3.92,1.07,5.88,3.2,5.88c2.15,0,3.22-1.94,3.22-5.82C83.62,10.44,82.56,8.48,80.45,8.48z"/>
	<path class="st2" d="M102.02,20.38c-0.96,0.96-2.2,1.45-3.72,1.45c-1.79,0-3.11-0.71-3.94-2.14c-0.62-1.08-0.93-2.46-0.93-4.14
		c0-2.89,0.72-5.1,2.15-6.63c1.3-1.38,3.04-2.07,5.21-2.07c0.58,0,1.02,0.02,1.3,0.06v1.73c-0.38-0.07-0.85-0.11-1.42-0.11
		c-2.75,0-4.42,1.51-5.01,4.52l-0.17,0.91l0.02,0.02c0.79-1.05,1.95-1.57,3.49-1.57c1.35,0,2.43,0.4,3.23,1.19
		c0.79,0.79,1.18,1.84,1.18,3.15C103.43,18.22,102.96,19.43,102.02,20.38z M100.67,14.87c-0.51-0.56-1.22-0.84-2.13-0.84
		c-0.87,0-1.59,0.28-2.14,0.85c-0.53,0.54-0.79,1.19-0.79,1.97c0,1.01,0.25,1.81,0.75,2.41c0.52,0.61,1.23,0.91,2.12,0.91
		c0.86,0,1.56-0.29,2.1-0.85c0.55-0.57,0.82-1.32,0.82-2.26C101.4,16.14,101.16,15.41,100.67,14.87z"/>
	<path class="st2" d="M114.47,20.38c-0.96,0.96-2.2,1.45-3.72,1.45c-1.79,0-3.11-0.71-3.94-2.14c-0.62-1.08-0.93-2.46-0.93-4.14
		c0-2.89,0.72-5.1,2.15-6.63c1.3-1.38,3.04-2.07,5.21-2.07c0.58,0,1.02,0.02,1.3,0.06v1.73c-0.38-0.07-0.85-0.11-1.42-0.11
		c-2.75,0-4.42,1.51-5.01,4.52l-0.17,0.91l0.02,0.02c0.79-1.05,1.95-1.57,3.49-1.57c1.35,0,2.43,0.4,3.23,1.19
		c0.79,0.79,1.18,1.84,1.18,3.15C115.87,18.22,115.4,19.43,114.47,20.38z M113.12,14.87c-0.51-0.56-1.22-0.84-2.13-0.84
		c-0.87,0-1.59,0.28-2.14,0.85c-0.53,0.54-0.79,1.19-0.79,1.97c0,1.01,0.25,1.81,0.75,2.41c0.52,0.61,1.23,0.91,2.12,0.91
		c0.86,0,1.56-0.29,2.1-0.85c0.55-0.57,0.82-1.32,0.82-2.26C113.85,16.14,113.6,15.41,113.12,14.87z"/>
	<path class="st2" d="M129.85,20.51c-1.06,0.85-2.42,1.28-4.06,1.28c-0.98,0-1.76-0.08-2.35-0.23l0.21-1.75
		c0.61,0.2,1.35,0.31,2.25,0.31c1.06,0,1.91-0.27,2.54-0.8c0.61-0.51,0.92-1.17,0.92-1.97c0-0.77-0.32-1.39-0.96-1.84
		c-0.67-0.47-1.61-0.71-2.84-0.71c-0.34,0-0.79,0.03-1.34,0.08V13.3c3.07,0.08,4.6-0.82,4.6-2.7c0-1.41-0.8-2.12-2.4-2.12
		c-0.89,0-1.74,0.21-2.53,0.64l-0.17-1.66c0.97-0.42,2.02-0.63,3.14-0.63c1.31,0,2.32,0.33,3.04,0.99c0.65,0.61,0.98,1.41,0.98,2.41
		c0,1.73-0.82,2.89-2.45,3.47l-0.02,0.05c0.91,0.2,1.65,0.6,2.2,1.2c0.57,0.63,0.85,1.39,0.85,2.27
		C131.45,18.56,130.92,19.65,129.85,20.51z"/>
	<path class="st2" d="M141.63,18.2v3.42h-1.92V18.2h-6.47l-0.13-1.51l5.9-9.66h2.62v9.4h2.44v1.77H141.63z M139.73,8.87h-0.02
		l-4.7,7.63c0.85-0.03,2.42-0.04,4.72-0.04V8.87z"/>
	<path class="st2" d="M153.62,19.67c-1.28,1.43-3.07,2.14-5.35,2.14c-0.67,0-1.25-0.04-1.75-0.13v-1.82
		c0.58,0.16,1.23,0.24,1.96,0.24c2.65,0,4.25-1.44,4.8-4.31c0.04-0.15,0.08-0.34,0.14-0.59l0.09-0.46l-0.02-0.02
		c-0.73,1.05-1.88,1.57-3.43,1.57c-1.35,0-2.42-0.4-3.21-1.19c-0.79-0.8-1.18-1.86-1.18-3.2c0-1.44,0.47-2.65,1.4-3.61
		c0.96-0.98,2.18-1.47,3.67-1.47c1.82,0,3.15,0.71,3.98,2.14c0.62,1.07,0.93,2.45,0.93,4.13C155.66,15.97,154.98,18.16,153.62,19.67
		z M152.69,9.37c-0.51-0.6-1.22-0.9-2.11-0.9c-0.84,0-1.52,0.28-2.06,0.85c-0.54,0.58-0.81,1.34-0.81,2.28
		c0,0.91,0.24,1.64,0.72,2.17c0.5,0.56,1.2,0.84,2.11,0.84c0.85,0,1.56-0.29,2.12-0.87c0.53-0.55,0.79-1.2,0.79-1.96
		C153.45,10.78,153.2,9.97,152.69,9.37z"/>
	<path class="st2" d="M58.74,46.75c-0.91,0.68-2.07,1.02-3.48,1.02c-1.44,0-2.55-0.34-3.36-1.02c-0.77-0.66-1.16-1.54-1.16-2.63
		c0-1.41,0.98-2.73,2.95-3.97c-1.8-1.04-2.7-2.25-2.7-3.61c0-1.16,0.43-2.09,1.29-2.8c0.86-0.7,1.99-1.06,3.4-1.06
		c1.28,0,2.31,0.33,3.09,0.99c0.75,0.64,1.12,1.46,1.12,2.47c0,1.27-0.94,2.52-2.81,3.76c2.08,1.13,3.11,2.43,3.11,3.92
		C60.19,45.05,59.71,46.02,58.74,46.75z M55.26,40.96c-1.64,1-2.46,1.99-2.46,2.97c0,0.68,0.24,1.21,0.71,1.6
		c0.49,0.4,1.14,0.6,1.97,0.6c0.77,0,1.39-0.18,1.88-0.54c0.51-0.39,0.77-0.91,0.77-1.58C58.13,42.98,57.17,41.96,55.26,40.96z
		 M57.26,34.87c-0.43-0.41-1.02-0.61-1.78-0.61c-0.77,0-1.39,0.19-1.85,0.58c-0.44,0.37-0.66,0.87-0.66,1.48
		c0,0.93,0.84,1.85,2.53,2.77c1.57-0.98,2.35-1.9,2.35-2.77C57.86,35.73,57.66,35.25,57.26,34.87z"/>
	<path class="st2" d="M71.45,45.89c-0.97,1.24-2.26,1.86-3.85,1.86c-3.41,0-5.12-2.45-5.12-7.35c0-2.49,0.53-4.41,1.59-5.75
		c0.98-1.24,2.26-1.86,3.85-1.86c3.41,0,5.12,2.44,5.12,7.33C73.05,42.61,72.51,44.54,71.45,45.89z M67.8,34.42
		c-2.16,0-3.24,1.94-3.24,5.82c0,3.92,1.07,5.88,3.2,5.88c2.15,0,3.22-1.94,3.22-5.82C70.98,36.38,69.92,34.42,67.8,34.42z"/>
	<path class="st2" d="M84.1,45.89c-0.97,1.24-2.26,1.86-3.85,1.86c-3.41,0-5.12-2.45-5.12-7.35c0-2.49,0.53-4.41,1.59-5.75
		c0.98-1.24,2.26-1.86,3.85-1.86c3.41,0,5.12,2.44,5.12,7.33C85.69,42.61,85.16,44.54,84.1,45.89z M80.45,34.42
		c-2.16,0-3.24,1.94-3.24,5.82c0,3.92,1.07,5.88,3.2,5.88c2.15,0,3.22-1.94,3.22-5.82C83.62,36.38,82.56,34.42,80.45,34.42z"/>
	<path class="st2" d="M106.48,47.56l-1.22-8.46c-0.21-1.52-0.36-2.75-0.45-3.69h-0.04c-0.27,1.11-0.53,2.03-0.76,2.74l-3.11,9.41
		h-2.12l-2.96-8.8c-0.4-1.2-0.71-2.31-0.93-3.35h-0.04c-0.06,1.12-0.19,2.41-0.39,3.87l-0.99,8.28h-2.04l2.14-14.59h2.42l3.09,9.21
		c0.23,0.63,0.51,1.6,0.84,2.89h0.02c0.27-1.04,0.53-1.96,0.8-2.77l3.16-9.33h2.46l2.21,14.59H106.48z"/>
	<path class="st2" d="M121.77,45.77c-1.29,1.34-2.92,2.01-4.89,2.01c-2.13,0-3.76-0.67-4.9-2.01c-1.07-1.27-1.6-3.05-1.6-5.32
		c0-2.36,0.68-4.26,2.04-5.68c1.28-1.34,2.91-2.02,4.88-2.02c2.14,0,3.77,0.67,4.9,2.02c1.08,1.27,1.61,3.04,1.61,5.31
		C123.81,42.44,123.13,44.34,121.77,45.77z M120.54,36.13c-0.8-1.08-1.95-1.63-3.44-1.63c-1.32,0-2.4,0.49-3.25,1.47
		c-0.9,1.03-1.35,2.43-1.35,4.18c0,1.8,0.38,3.21,1.13,4.23c0.8,1.08,1.95,1.63,3.45,1.63c1.32,0,2.4-0.49,3.25-1.46
		c0.9-1.03,1.35-2.42,1.35-4.17C121.68,38.58,121.3,37.16,120.54,36.13z"/>
	<path class="st2" d="M132.17,34.61v4.74h5.17v1.59h-5.17v6.62h-1.98V32.97h7.44v1.64H132.17z"/>
	<path class="st2" d="M140.32,47.56V32.97h1.98v14.59H140.32z"/>
	<path class="st2" d="M154.23,47.56l-3.73-6.03l-3.69,6.03h-2.31l4.8-7.53l-4.5-7.06h2.29l3.45,5.57l3.4-5.57h2.25l-4.43,7
		l4.95,7.59H154.23z"/>
</g>
</svg>
